<svg width="48" height="75" viewBox="0 0 48 75" fill="none" xmlns="http://www.w3.org/2000/svg">
<path d="M25.9752 44.5827H22.0247C20.9383 44.5827 20.0494 43.6938 20.0494 42.6074H6.24233V50.5085C6.24233 52.6812 8.02006 54.459 10.1928 54.459H37.8267C39.9995 54.459 41.7773 52.6812 41.7773 50.5085V42.6074H27.9504C27.9504 43.6938 27.0616 44.5827 25.9752 44.5827ZM39.802 26.8053H31.901C31.901 22.44 28.3652 18.9043 23.9999 18.9043C19.6346 18.9043 16.0989 22.44 16.0989 26.8053H8.19784C6.02505 26.8053 4.24731 28.5831 4.24731 30.7559V36.6816C4.24731 38.8742 6.0053 40.6322 8.19784 40.6322H20.0494V38.6569C20.0494 37.5705 20.9383 36.6816 22.0247 36.6816H25.9752C27.0616 36.6816 27.9504 37.5705 27.9504 38.6569V40.6322H39.802C41.9748 40.6322 43.7525 38.8544 43.7525 36.6816V30.7559C43.7525 28.5831 41.9748 26.8053 39.802 26.8053ZM20.0494 26.8053C20.0494 24.6326 21.8271 22.8548 23.9999 22.8548C26.1727 22.8548 27.9504 24.6326 27.9504 26.8053H20.0296H20.0494Z" fill="#D9B764"/>
</svg>
