<svg width="48" height="75" viewBox="0 0 48 75" fill="none" xmlns="http://www.w3.org/2000/svg">
<path d="M22.379 18.8324C21.5688 19.6358 21.6195 20.4893 22.5816 21.4433C23.645 22.5479 23.1892 23.05 20.708 23.4516C14.7327 24.4056 9.51705 29.8281 8.35239 36.4055L7.99792 38.3134H39.0894L38.735 35.9536C37.8235 29.8281 32.6585 24.3554 26.8858 23.4516C24.6071 23.1002 23.8981 22.4474 24.759 21.5939C25.5692 20.7906 25.4173 18.8826 24.5058 18.5312C23.3918 18.1295 23.0879 18.1295 22.379 18.8324ZM15.9987 27.87C14.9859 29.0248 13.6693 31.2842 13.0617 32.8909C12.3021 34.9996 11.7451 35.803 11.0868 35.803C10.2766 35.803 10.226 35.6021 10.6311 34.5478C11.7451 31.6859 12.9098 29.9285 15.0872 27.87C17.9735 25.2089 18.328 25.1587 15.9987 27.87Z" fill="#D9B764"/>
<path d="M4.30138 40.3218C4.45329 40.5728 5.56732 40.8239 6.73199 40.8239C8.45367 40.8239 8.96004 41.0247 9.36514 41.9284C9.87152 43.0832 9.92216 43.0832 23.6956 43.2339L37.469 43.3343L38.0767 42.0791C38.5324 41.0247 38.9882 40.8239 40.8111 40.8239C42.0264 40.8239 43.1405 40.5728 43.2924 40.3218C43.4949 39.9703 36.8614 39.8197 23.7969 39.8197C10.7324 39.8197 4.09883 39.9703 4.30138 40.3218Z" fill="#D9B764"/>
<path d="M16.2012 45.3427C14.6821 45.895 13.4162 46.3469 13.3149 46.3469C13.2642 46.3469 13.4162 46.9494 13.6693 47.7025C13.9225 48.5059 14.2264 49.9619 14.4289 50.9661L14.7327 52.8741L17.6191 52.8238C19.1889 52.8238 22.2271 52.623 24.3539 52.4222C27.7973 52.0707 28.5568 51.7695 32.0508 49.4599C34.127 48.0038 36.0006 46.6482 36.2031 46.3469C36.912 45.1921 34.8359 45.3427 32.0508 46.6482C28.6581 48.2046 21.4675 49.0582 21.8727 47.803C21.9739 47.4515 22.8854 46.9494 23.8475 46.6984C25.873 46.1963 26.9364 45.3929 26.5313 44.7904C26.0249 43.9369 19.0876 44.3386 16.2012 45.3427Z" fill="#D9B764"/>
<path d="M7.23836 46.1962C6.78262 46.3468 6.58007 47.9033 6.58007 51.4681C6.58007 55.284 6.73199 56.4388 7.23836 56.238C7.54219 56.1375 9.06132 55.7359 10.5298 55.3844C13.3149 54.6313 13.5681 54.2798 12.7072 51.5685C12.454 50.7652 11.9983 49.1585 11.6945 47.9535C11.1375 45.9954 10.9855 45.8447 9.46642 45.895C8.55494 45.895 7.54219 46.0456 7.23836 46.1962Z" fill="#D9B764"/>
</svg>
