<svg width="21" height="27" viewBox="0 0 21 27" fill="none" xmlns="http://www.w3.org/2000/svg">
<path d="M10.5 0.615234C7.76591 0.618336 5.14468 1.70582 3.21139 3.63912C1.27809 5.57242 0.190602 8.19364 0.1875 10.9277C0.1875 19.752 9.5625 26.4164 9.96211 26.6953C10.1197 26.8057 10.3075 26.865 10.5 26.865C10.6925 26.865 10.8803 26.8057 11.0379 26.6953C11.4375 26.4164 20.8125 19.752 20.8125 10.9277C20.8094 8.19364 19.7219 5.57242 17.7886 3.63912C15.8553 1.70582 13.2341 0.618336 10.5 0.615234ZM10.5 7.17773C11.2417 7.17773 11.9667 7.39767 12.5834 7.80972C13.2001 8.22178 13.6807 8.80745 13.9645 9.49267C14.2484 10.1779 14.3226 10.9319 14.1779 11.6593C14.0333 12.3868 13.6761 13.0549 13.1516 13.5794C12.6272 14.1038 11.959 14.461 11.2316 14.6057C10.5042 14.7504 9.75016 14.6761 9.06494 14.3923C8.37971 14.1085 7.79404 13.6278 7.38199 13.0111C6.96993 12.3944 6.75 11.6694 6.75 10.9277C6.75 9.93317 7.14509 8.97935 7.84835 8.27608C8.55161 7.57282 9.50544 7.17773 10.5 7.17773Z" fill="white"/>
</svg>
