<svg width="26" height="25" viewBox="0 0 26 25" fill="none" xmlns="http://www.w3.org/2000/svg">
<path d="M14.2852 0.00125189C15.1974 -0.00224839 16.1096 0.00691926 17.0215 0.028752L17.264 0.0375019C17.544 0.0475019 17.8202 0.0600019 18.154 0.0750019C19.484 0.137502 20.3915 0.347502 21.1877 0.656252C22.0127 0.973752 22.7077 1.40375 23.4027 2.09875C24.0382 2.72326 24.53 3.47869 24.844 4.3125C25.1527 5.10875 25.3627 6.0175 25.4252 7.3475C25.4402 7.68 25.4527 7.9575 25.4627 8.2375L25.4702 8.48C25.4924 9.39149 25.502 10.3032 25.499 11.215L25.5002 12.1475V13.785C25.5033 14.6972 25.4937 15.6093 25.4715 16.5213L25.464 16.7638C25.454 17.0438 25.4415 17.32 25.4265 17.6538C25.364 18.9838 25.1515 19.8913 24.844 20.6875C24.531 21.5222 24.0391 22.2782 23.4027 22.9025C22.7777 23.5379 22.0219 24.0297 21.1877 24.3438C20.3915 24.6525 19.484 24.8625 18.154 24.925C17.8202 24.94 17.544 24.9525 17.264 24.9625L17.0215 24.97C16.1096 24.9922 15.1974 25.0018 14.2852 24.9988L13.3527 25H11.7165C10.8043 25.0031 9.89214 24.9935 8.98023 24.9713L8.73773 24.9638C8.441 24.953 8.14432 24.9405 7.84773 24.9263C6.51773 24.8638 5.61023 24.6513 4.81273 24.3438C3.97859 24.0304 3.22303 23.5385 2.59898 22.9025C1.96279 22.2779 1.47051 21.522 1.15648 20.6875C0.847733 19.8913 0.637733 18.9838 0.575233 17.6538C0.561312 17.3571 0.548811 17.0605 0.537733 16.7638L0.531483 16.5213C0.508438 15.6094 0.49802 14.6972 0.500233 13.785V11.215C0.496744 10.3033 0.505912 9.3915 0.527733 8.48L0.536483 8.2375C0.546483 7.9575 0.558983 7.68 0.573983 7.3475C0.636483 6.01625 0.846483 5.11 1.15523 4.3125C1.46945 3.47828 1.96269 2.72306 2.60023 2.1C3.22385 1.46344 3.97893 0.970718 4.81273 0.656252C5.61023 0.347502 6.51648 0.137502 7.84773 0.0750019L8.73773 0.0375019L8.98023 0.0312521C9.89171 0.00821812 10.8035 -0.00219967 11.7152 1.98261e-06L14.2852 0.00125189ZM13.0002 6.25125C12.1721 6.23954 11.3499 6.39253 10.5815 6.70134C9.81298 7.01014 9.11354 7.4686 8.52379 8.05007C7.93404 8.63154 7.46573 9.32442 7.14609 10.0885C6.82645 10.8525 6.66185 11.6724 6.66185 12.5006C6.66185 13.3288 6.82645 14.1488 7.14609 14.9128C7.46573 15.6768 7.93404 16.3697 8.52379 16.9512C9.11354 17.5327 9.81298 17.9911 10.5815 18.2999C11.3499 18.6087 12.1721 18.7617 13.0002 18.75C14.6578 18.75 16.2475 18.0915 17.4197 16.9194C18.5918 15.7473 19.2502 14.1576 19.2502 12.5C19.2502 10.8424 18.5918 9.25269 17.4197 8.08058C16.2475 6.90848 14.6578 6.25125 13.0002 6.25125ZM13.0002 8.75125C13.4984 8.74207 13.9933 8.83225 14.4562 9.01651C14.9191 9.20077 15.3407 9.47543 15.6962 9.82443C16.0518 10.1734 16.3342 10.5898 16.527 11.0492C16.7199 11.5086 16.8192 12.0018 16.8193 12.5C16.8194 12.9982 16.7202 13.4914 16.5275 13.9509C16.3348 14.4104 16.0525 14.8268 15.6971 15.1759C15.3417 15.525 14.9202 15.7998 14.4574 15.9843C13.9946 16.1687 13.4996 16.259 13.0015 16.25C12.0069 16.25 11.0531 15.8549 10.3498 15.1517C9.64657 14.4484 9.25148 13.4946 9.25148 12.5C9.25148 11.5054 9.64657 10.5516 10.3498 9.84835C11.0531 9.14509 12.0069 8.75 13.0015 8.75L13.0002 8.75125ZM19.5627 4.37625C19.1595 4.39239 18.7781 4.56394 18.4985 4.85497C18.2189 5.14599 18.0627 5.53392 18.0627 5.9375C18.0627 6.34108 18.2189 6.72901 18.4985 7.02004C18.7781 7.31106 19.1595 7.48261 19.5627 7.49875C19.9771 7.49875 20.3746 7.33413 20.6676 7.04111C20.9606 6.74808 21.1252 6.35065 21.1252 5.93625C21.1252 5.52185 20.9606 5.12442 20.6676 4.8314C20.3746 4.53837 19.9771 4.37375 19.5627 4.37375V4.37625Z" fill="#D7D7D7"/>
</svg>
